<?xml version="1.0" encoding="UTF-8" standalone="no"?>
<!-- Created with Inkscape (http://www.inkscape.org/) -->

<svg
   xmlns:osb="http://www.openswatchbook.org/uri/2009/osb"
   xmlns:dc="http://purl.org/dc/elements/1.1/"
   xmlns:cc="http://creativecommons.org/ns#"
   xmlns:rdf="http://www.w3.org/1999/02/22-rdf-syntax-ns#"
   xmlns:svg="http://www.w3.org/2000/svg"
   xmlns="http://www.w3.org/2000/svg"
   xmlns:xlink="http://www.w3.org/1999/xlink"
   xmlns:sodipodi="http://sodipodi.sourceforge.net/DTD/sodipodi-0.dtd"
   xmlns:inkscape="http://www.inkscape.org/namespaces/inkscape"
   id="svg3390"
   version="1.1"
   inkscape:version="0.91 r13725"
   width="232.80219"
   height="232.80219"
   viewBox="0 0 232.80219 232.80219"
   sodipodi:docname="dawn.svg"
   inkscape:export-filename="/home/brian/projects/ex3_angular/app/assets/images/dawn24.png"
   inkscape:export-xdpi="9.2739477"
   inkscape:export-ydpi="9.2739477">
  <metadata
     id="metadata3396">
    <rdf:RDF>
      <cc:Work
         rdf:about="">
        <dc:format>image/svg+xml</dc:format>
        <dc:type
           rdf:resource="http://purl.org/dc/dcmitype/StillImage" />
        <dc:title></dc:title>
      </cc:Work>
    </rdf:RDF>
  </metadata>
  <defs
     id="defs3394">
    <linearGradient
       inkscape:collect="always"
       id="Solar-1">
      <stop
         style="stop-color:#ffc200;stop-opacity:1"
         offset="0"
         id="stop6232" />
      <stop
         style="stop-color:#ffffdb;stop-opacity:1"
         offset="1"
         id="stop6234" />
    </linearGradient>
    <linearGradient
       id="linearGradient6106"
       osb:paint="solid">
      <stop
         style="stop-color:#ffea00;stop-opacity:1;"
         offset="0"
         id="stop6108" />
    </linearGradient>
    <linearGradient
       id="linearGradient5653"
       osb:paint="solid">
      <stop
         style="stop-color:#ffed00;stop-opacity:1;"
         offset="0"
         id="stop5655" />
    </linearGradient>
    <linearGradient
       inkscape:collect="always"
       xlink:href="#Solar-1"
       id="linearGradient6212"
       x1="4.3115625"
       y1="242.11845"
       x2="237.90996"
       y2="5.9043508"
       gradientUnits="userSpaceOnUse"
       gradientTransform="translate(-8.2764623,-5.2239066)" />
  </defs>
  <sodipodi:namedview
     pagecolor="#ffffff"
     bordercolor="#666666"
     borderopacity="1"
     objecttolerance="10"
     gridtolerance="10"
     guidetolerance="10"
     inkscape:pageopacity="0"
     inkscape:pageshadow="2"
     inkscape:window-width="1920"
     inkscape:window-height="1056"
     id="namedview3392"
     showgrid="false"
     inkscape:zoom="1.4819449"
     inkscape:cx="91.136146"
     inkscape:cy="237.12339"
     inkscape:window-x="0"
     inkscape:window-y="24"
     inkscape:window-maximized="1"
     inkscape:current-layer="svg3390"
     fit-margin-top="0"
     fit-margin-left="0"
     fit-margin-right="0"
     fit-margin-bottom="0" />
  <path
     inkscape:export-xdpi="18.547895"
     inkscape:export-ydpi="18.547895"
     style="fill:url(#linearGradient6212);fill-opacity:1.0;fill-rule:nonzero;stroke:#d47100;stroke-width:1.09802592;stroke-miterlimit:4;stroke-dasharray:none;stroke-opacity:1"
     d="M 116.40039 0.49414062 A 8.9779778 7.6029778 0 0 0 107.42188 8.0976562 A 8.9779778 7.6029778 0 0 0 107.46094 8.7441406 L 107.46094 44.4375 A 8.9779778 7.6029778 0 0 0 107.42188 45.097656 A 8.9779778 7.6029778 0 0 0 116.40039 52.701172 A 8.9779778 7.6029778 0 0 0 125.37891 45.097656 A 8.9779778 7.6029778 0 0 0 125.33984 44.451172 L 125.33984 8.7578125 A 8.9779778 7.6029778 0 0 0 125.37891 8.0976562 A 8.9779778 7.6029778 0 0 0 116.40039 0.49414062 z M 41.212891 31.5 A 7.6029778 8.9779778 45 0 0 34.443359 34.443359 A 7.6029778 8.9779778 45 0 0 33.470703 46.167969 A 7.6029778 8.9779778 45 0 0 33.955078 46.597656 L 59.195312 71.835938 A 7.6029778 8.9779778 45 0 0 59.634766 72.332031 A 7.6029778 8.9779778 45 0 0 71.359375 71.359375 A 7.6029778 8.9779778 45 0 0 72.332031 59.634766 A 7.6029778 8.9779778 45 0 0 71.845703 59.205078 L 46.607422 33.964844 A 7.6029778 8.9779778 45 0 0 46.167969 33.470703 A 7.6029778 8.9779778 45 0 0 41.212891 31.5 z M 191.35156 31.503906 A 8.9779778 7.6029778 45 0 0 186.63477 33.470703 A 8.9779778 7.6029778 45 0 0 186.20508 33.955078 L 160.96484 59.195312 A 8.9779778 7.6029778 45 0 0 160.4707 59.634766 A 8.9779778 7.6029778 45 0 0 161.44336 71.359375 A 8.9779778 7.6029778 45 0 0 173.16797 72.332031 A 8.9779778 7.6029778 45 0 0 173.59766 71.845703 L 198.83594 46.607422 A 8.9779778 7.6029778 45 0 0 199.33203 46.167969 A 8.9779778 7.6029778 45 0 0 198.35938 34.443359 A 8.9779778 7.6029778 45 0 0 191.35156 31.503906 z M 116.17383 59.527344 A 56.908581 56.908581 0 0 0 59.265625 116.43555 A 56.908581 56.908581 0 0 0 116.17383 173.34375 A 56.908581 56.908581 0 0 0 173.08203 116.43555 A 56.908581 56.908581 0 0 0 116.17383 59.527344 z M 116.17383 80.1875 A 36.248245 36.248245 0 0 1 152.42188 116.43555 A 36.248245 36.248245 0 0 1 116.17383 152.68359 A 36.248245 36.248245 0 0 1 79.925781 116.43555 A 36.248245 36.248245 0 0 1 116.17383 80.1875 z M 8.0976562 107.42188 A 7.6029778 8.9779778 0 0 0 0.49414062 116.40039 A 7.6029778 8.9779778 0 0 0 8.0976562 125.37891 A 7.6029778 8.9779778 0 0 0 8.7441406 125.33984 L 44.4375 125.33984 A 7.6029778 8.9779778 0 0 0 45.097656 125.37891 A 7.6029778 8.9779778 0 0 0 52.701172 116.40039 A 7.6029778 8.9779778 0 0 0 45.097656 107.42188 A 7.6029778 8.9779778 0 0 0 44.451172 107.46094 L 8.7578125 107.46094 A 7.6029778 8.9779778 0 0 0 8.0976562 107.42188 z M 187.70312 107.42188 A 7.6029778 8.9779778 0 0 0 180.09961 116.40039 A 7.6029778 8.9779778 0 0 0 187.70312 125.37891 A 7.6029778 8.9779778 0 0 0 188.34961 125.33984 L 224.04297 125.33984 A 7.6029778 8.9779778 0 0 0 224.70312 125.37891 A 7.6029778 8.9779778 0 0 0 232.30664 116.40039 A 7.6029778 8.9779778 0 0 0 224.70312 107.42188 A 7.6029778 8.9779778 0 0 0 224.05664 107.46094 L 188.36328 107.46094 A 7.6029778 8.9779778 0 0 0 187.70312 107.42188 z M 168.21289 158.5 A 7.6029778 8.9779778 45 0 0 161.44336 161.44336 A 7.6029778 8.9779778 45 0 0 160.4707 173.16797 A 7.6029778 8.9779778 45 0 0 160.95508 173.59766 L 186.19531 198.83594 A 7.6029778 8.9779778 45 0 0 186.63477 199.33203 A 7.6029778 8.9779778 45 0 0 198.35938 198.35938 A 7.6029778 8.9779778 45 0 0 199.33203 186.63477 A 7.6029778 8.9779778 45 0 0 198.8457 186.20508 L 173.60742 160.96484 A 7.6029778 8.9779778 45 0 0 173.16797 160.4707 A 7.6029778 8.9779778 45 0 0 168.21289 158.5 z M 64.351562 158.50391 A 8.9779778 7.6029778 45 0 0 59.634766 160.4707 A 8.9779778 7.6029778 45 0 0 59.205078 160.95508 L 33.964844 186.19531 A 8.9779778 7.6029778 45 0 0 33.470703 186.63477 A 8.9779778 7.6029778 45 0 0 34.443359 198.35938 A 8.9779778 7.6029778 45 0 0 46.167969 199.33203 A 8.9779778 7.6029778 45 0 0 46.597656 198.8457 L 71.835938 173.60742 A 8.9779778 7.6029778 45 0 0 72.332031 173.16797 A 8.9779778 7.6029778 45 0 0 71.359375 161.44336 A 8.9779778 7.6029778 45 0 0 64.351562 158.50391 z M 116.40039 180.09961 A 8.9779778 7.6029778 0 0 0 107.42188 187.70312 A 8.9779778 7.6029778 0 0 0 107.46094 188.34961 L 107.46094 224.04297 A 8.9779778 7.6029778 0 0 0 107.42188 224.70312 A 8.9779778 7.6029778 0 0 0 116.40039 232.30664 A 8.9779778 7.6029778 0 0 0 125.37891 224.70312 A 8.9779778 7.6029778 0 0 0 125.33984 224.05664 L 125.33984 188.36328 A 8.9779778 7.6029778 0 0 0 125.37891 187.70312 A 8.9779778 7.6029778 0 0 0 116.40039 180.09961 z "
     id="path5849" />
  <g
     inkscape:groupmode="layer"
     id="layer1"
     inkscape:label="background" />
</svg>
