<?xml version="1.0" encoding="UTF-8" standalone="no"?>
<!-- Created with Inkscape (http://www.inkscape.org/) -->

<svg
   xmlns:dc="http://purl.org/dc/elements/1.1/"
   xmlns:cc="http://creativecommons.org/ns#"
   xmlns:rdf="http://www.w3.org/1999/02/22-rdf-syntax-ns#"
   xmlns:svg="http://www.w3.org/2000/svg"
   xmlns="http://www.w3.org/2000/svg"
   xmlns:xlink="http://www.w3.org/1999/xlink"
   xmlns:sodipodi="http://sodipodi.sourceforge.net/DTD/sodipodi-0.dtd"
   xmlns:inkscape="http://www.inkscape.org/namespaces/inkscape"
   width="64.939972mm"
   height="64.939964mm"
   viewBox="0 0 230.10226 230.10223"
   id="svg4738"
   version="1.1"
   inkscape:version="0.91 r13725"
   sodipodi:docname="eclipse.svg">
  <defs
     id="defs4740">
    <linearGradient
       inkscape:collect="always"
       xlink:href="#Solar-1"
       id="linearGradient6400"
       gradientUnits="userSpaceOnUse"
       gradientTransform="translate(-78.043971,282.63626)"
       x1="337.28516"
       y1="235.66505"
       x2="559.75275"
       y2="17.131351" />
    <linearGradient
       inkscape:collect="always"
       id="Solar-1">
      <stop
         style="stop-color:#ffc200;stop-opacity:1"
         offset="0"
         id="stop6232" />
      <stop
         style="stop-color:#ffffdb;stop-opacity:1"
         offset="1"
         id="stop6234" />
    </linearGradient>
  </defs>
  <sodipodi:namedview
     id="base"
     pagecolor="#ffffff"
     bordercolor="#666666"
     borderopacity="1.0"
     inkscape:pageopacity="0.0"
     inkscape:pageshadow="2"
     inkscape:zoom="0.35"
     inkscape:cx="-371.37743"
     inkscape:cy="-10.663165"
     inkscape:document-units="px"
     inkscape:current-layer="layer1"
     showgrid="false"
     fit-margin-top="0"
     fit-margin-left="0"
     fit-margin-right="0"
     fit-margin-bottom="0"
     inkscape:window-width="1920"
     inkscape:window-height="1056"
     inkscape:window-x="0"
     inkscape:window-y="24"
     inkscape:window-maximized="1" />
  <metadata
     id="metadata4743">
    <rdf:RDF>
      <cc:Work
         rdf:about="">
        <dc:format>image/svg+xml</dc:format>
        <dc:type
           rdf:resource="http://purl.org/dc/dcmitype/StillImage" />
        <dc:title></dc:title>
      </cc:Work>
    </rdf:RDF>
  </metadata>
  <g
     inkscape:label="Layer 1"
     inkscape:groupmode="layer"
     id="layer1"
     transform="translate(-256.37743,-291.5968)">
    <path
       style="fill:url(#linearGradient6400);fill-opacity:1;fill-rule:nonzero;stroke:#d47100;stroke-width:1.07099998;stroke-miterlimit:4;stroke-dasharray:none;stroke-opacity:1"
       d="M 371.42853,292.1323 A 114.51548,114.51548 0 0 0 256.91293,406.64792 114.51548,114.51548 0 0 0 371.42853,521.16354 114.51548,114.51548 0 0 0 485.9442,406.64792 114.51548,114.51548 0 0 0 371.42853,292.1323 Z m 0,29.44726 a 85.070007,85.070007 0 0 1 85.07036,85.06836 85.070007,85.070007 0 0 1 -85.07036,85.07031 85.070007,85.070007 0 0 1 -85.0703,-85.07031 85.070007,85.070007 0 0 1 85.0703,-85.06836 z m 0,34.19336 a 50.875267,50.875267 0 0 0 -50.875,50.875 50.875267,50.875267 0 0 0 50.875,50.87695 50.875267,50.875267 0 0 0 50.87505,-50.87695 50.875267,50.875267 0 0 0 -50.87505,-50.875 z"
       id="circle6396"
       inkscape:connector-curvature="0"
       inkscape:export-xdpi="18.774261"
       inkscape:export-ydpi="18.774261" />
  </g>
</svg>
